<svg width="251" height="56" viewBox="0 0 251 56" fill="none" xmlns="http://www.w3.org/2000/svg">
<path d="M8.08594 29.5156L21.4453 34.2266V40.7891L1.26562 32.2344V26.7031L21.4453 18.1484V24.7109L8.08594 29.5156ZM37.5703 39.0078C38.8203 39.0078 39.8359 38.6641 40.6172 37.9766C41.3984 37.2891 41.8047 36.375 41.8359 35.2344H48.1875C48.1719 36.9531 47.7031 38.5312 46.7812 39.9688C45.8594 41.3906 44.5938 42.5 42.9844 43.2969C41.3906 44.0781 39.625 44.4688 37.6875 44.4688C34.0625 44.4688 31.2031 43.3203 29.1094 41.0234C27.0156 38.7109 25.9688 35.5234 25.9688 31.4609V31.0156C25.9688 27.1094 27.0078 23.9922 29.0859 21.6641C31.1641 19.3359 34.0156 18.1719 37.6406 18.1719C40.8125 18.1719 43.3516 19.0781 45.2578 20.8906C47.1797 22.6875 48.1562 25.0859 48.1875 28.0859H41.8359C41.8047 26.7734 41.3984 25.7109 40.6172 24.8984C39.8359 24.0703 38.8047 23.6562 37.5234 23.6562C35.9453 23.6562 34.75 24.2344 33.9375 25.3906C33.1406 26.5312 32.7422 28.3906 32.7422 30.9688V31.6719C32.7422 34.2812 33.1406 36.1562 33.9375 37.2969C34.7344 38.4375 35.9453 39.0078 37.5703 39.0078ZM51 31.0859C51 28.5703 51.4844 26.3281 52.4531 24.3594C53.4219 22.3906 54.8125 20.8672 56.625 19.7891C58.4531 18.7109 60.5703 18.1719 62.9766 18.1719C66.3984 18.1719 69.1875 19.2188 71.3438 21.3125C73.5156 23.4062 74.7266 26.25 74.9766 29.8438L75.0234 31.5781C75.0234 35.4688 73.9375 38.5938 71.7656 40.9531C69.5938 43.2969 66.6797 44.4688 63.0234 44.4688C59.3672 44.4688 56.4453 43.2969 54.2578 40.9531C52.0859 38.6094 51 35.4219 51 31.3906V31.0859ZM57.7734 31.5781C57.7734 33.9844 58.2266 35.8281 59.1328 37.1094C60.0391 38.375 61.3359 39.0078 63.0234 39.0078C64.6641 39.0078 65.9453 38.3828 66.8672 37.1328C67.7891 35.8672 68.25 33.8516 68.25 31.0859C68.25 28.7266 67.7891 26.8984 66.8672 25.6016C65.9453 24.3047 64.6484 23.6562 62.9766 23.6562C61.3203 23.6562 60.0391 24.3047 59.1328 25.6016C58.2266 26.8828 57.7734 28.875 57.7734 31.5781ZM78.1406 31.1328C78.1406 27.1797 79.0234 24.0312 80.7891 21.6875C82.5703 19.3438 85 18.1719 88.0781 18.1719C90.5469 18.1719 92.5859 19.0938 94.1953 20.9375V8H100.992V44H94.875L94.5469 41.3047C92.8594 43.4141 90.6875 44.4688 88.0312 44.4688C85.0469 44.4688 82.6484 43.2969 80.8359 40.9531C79.0391 38.5938 78.1406 35.3203 78.1406 31.1328ZM84.9141 31.625C84.9141 34 85.3281 35.8203 86.1562 37.0859C86.9844 38.3516 88.1875 38.9844 89.7656 38.9844C91.8594 38.9844 93.3359 38.1016 94.1953 36.3359V26.3281C93.3516 24.5625 91.8906 23.6797 89.8125 23.6797C86.5469 23.6797 84.9141 26.3281 84.9141 31.625ZM105.188 31.1328C105.188 27.1797 106.07 24.0312 107.836 21.6875C109.617 19.3438 112.047 18.1719 115.125 18.1719C117.594 18.1719 119.633 19.0938 121.242 20.9375V8H128.039V44H121.922L121.594 41.3047C119.906 43.4141 117.734 44.4688 115.078 44.4688C112.094 44.4688 109.695 43.2969 107.883 40.9531C106.086 38.5938 105.188 35.3203 105.188 31.1328ZM111.961 31.625C111.961 34 112.375 35.8203 113.203 37.0859C114.031 38.3516 115.234 38.9844 116.812 38.9844C118.906 38.9844 120.383 38.1016 121.242 36.3359V26.3281C120.398 24.5625 118.938 23.6797 116.859 23.6797C113.594 23.6797 111.961 26.3281 111.961 31.625ZM144.961 44.4688C141.242 44.4688 138.211 43.3281 135.867 41.0469C133.539 38.7656 132.375 35.7266 132.375 31.9297V31.2734C132.375 28.7266 132.867 26.4531 133.852 24.4531C134.836 22.4375 136.227 20.8906 138.023 19.8125C139.836 18.7188 141.898 18.1719 144.211 18.1719C147.68 18.1719 150.406 19.2656 152.391 21.4531C154.391 23.6406 155.391 26.7422 155.391 30.7578V33.5234H139.242C139.461 35.1797 140.117 36.5078 141.211 37.5078C142.32 38.5078 143.719 39.0078 145.406 39.0078C148.016 39.0078 150.055 38.0625 151.523 36.1719L154.852 39.8984C153.836 41.3359 152.461 42.4609 150.727 43.2734C148.992 44.0703 147.07 44.4688 144.961 44.4688ZM144.188 23.6562C142.844 23.6562 141.75 24.1094 140.906 25.0156C140.078 25.9219 139.547 27.2188 139.312 28.9062H148.734V28.3672C148.703 26.8672 148.297 25.7109 147.516 24.8984C146.734 24.0703 145.625 23.6562 144.188 23.6562ZM173.953 44C173.641 43.3906 173.414 42.6328 173.273 41.7266C171.633 43.5547 169.5 44.4688 166.875 44.4688C164.391 44.4688 162.328 43.75 160.688 42.3125C159.062 40.875 158.25 39.0625 158.25 36.875C158.25 34.1875 159.242 32.125 161.227 30.6875C163.227 29.25 166.109 28.5234 169.875 28.5078H172.992V27.0547C172.992 25.8828 172.688 24.9453 172.078 24.2422C171.484 23.5391 170.539 23.1875 169.242 23.1875C168.102 23.1875 167.203 23.4609 166.547 24.0078C165.906 24.5547 165.586 25.3047 165.586 26.2578H158.812C158.812 24.7891 159.266 23.4297 160.172 22.1797C161.078 20.9297 162.359 19.9531 164.016 19.25C165.672 18.5312 167.531 18.1719 169.594 18.1719C172.719 18.1719 175.195 18.9609 177.023 20.5391C178.867 22.1016 179.789 24.3047 179.789 27.1484V38.1406C179.805 40.5469 180.141 42.3672 180.797 43.6016V44H173.953ZM168.352 39.2891C169.352 39.2891 170.273 39.0703 171.117 38.6328C171.961 38.1797 172.586 37.5781 172.992 36.8281V32.4688H170.461C167.07 32.4688 165.266 33.6406 165.047 35.9844L165.023 36.3828C165.023 37.2266 165.32 37.9219 165.914 38.4688C166.508 39.0156 167.32 39.2891 168.352 39.2891ZM195.539 39.0078C196.789 39.0078 197.805 38.6641 198.586 37.9766C199.367 37.2891 199.773 36.375 199.805 35.2344H206.156C206.141 36.9531 205.672 38.5312 204.75 39.9688C203.828 41.3906 202.562 42.5 200.953 43.2969C199.359 44.0781 197.594 44.4688 195.656 44.4688C192.031 44.4688 189.172 43.3203 187.078 41.0234C184.984 38.7109 183.938 35.5234 183.938 31.4609V31.0156C183.938 27.1094 184.977 23.9922 187.055 21.6641C189.133 19.3359 191.984 18.1719 195.609 18.1719C198.781 18.1719 201.32 19.0781 203.227 20.8906C205.148 22.6875 206.125 25.0859 206.156 28.0859H199.805C199.773 26.7734 199.367 25.7109 198.586 24.8984C197.805 24.0703 196.773 23.6562 195.492 23.6562C193.914 23.6562 192.719 24.2344 191.906 25.3906C191.109 26.5312 190.711 28.3906 190.711 30.9688V31.6719C190.711 34.2812 191.109 36.1562 191.906 37.2969C192.703 38.4375 193.914 39.0078 195.539 39.0078ZM212.156 46.9297H207.117L219.68 9.875H224.719L212.156 46.9297ZM241.805 29.4453L228.188 24.6875V18.1719L248.602 26.7266V32.2344L228.188 40.8125V34.2734L241.805 29.4453Z" fill="black"/>
</svg>
